<svg width="17" height="30" viewBox="0 0 17 30" fill="none" xmlns="http://www.w3.org/2000/svg">
<path d="M-0.000133802 14.9867C0.022429 14.6363 0.172876 14.3065 0.422523 14.0602L14.0268 0.401087C14.1454 0.274474 14.2886 0.17356 14.4476 0.104575C14.6066 0.0355908 14.7781 0 14.9514 0C15.1246 0 15.2961 0.0355908 15.4551 0.104575C15.6141 0.17356 15.7573 0.274474 15.8759 0.401087C16.0023 0.519916 16.103 0.663436 16.1718 0.822786C16.2407 0.982136 16.2762 1.15394 16.2762 1.32758C16.2762 1.50122 16.2407 1.67302 16.1718 1.83237C16.103 1.99172 16.0023 2.13524 15.8759 2.25407L3.06413 14.9867L15.8759 27.7193C15.9997 27.8423 16.098 27.9887 16.165 28.15C16.2321 28.3113 16.2666 28.4843 16.2666 28.659C16.2666 28.8337 16.2321 29.0067 16.165 29.168C16.098 29.3293 15.9997 29.4757 15.8759 29.5987C15.7573 29.7254 15.6141 29.8263 15.4551 29.8953C15.2961 29.9642 15.1246 29.9998 14.9514 29.9998C14.7781 29.9998 14.6066 29.9642 14.4476 29.8953C14.2886 29.8263 14.1454 29.7254 14.0268 29.5987L0.422523 15.8867C0.178658 15.6471 0.0286852 15.3277 -0.000133802 14.9867Z" fill="white"/>
</svg>
