<svg width="6" height="11" viewBox="0 0 6 11" fill="none" xmlns="http://www.w3.org/2000/svg">
<path d="M9.94551e-05 5.49502C0.00838911 5.36656 0.0636674 5.24564 0.155394 5.15531L5.15394 0.147063C5.19751 0.100639 5.25013 0.0636374 5.30856 0.0383436C5.36699 0.0130497 5.42998 0 5.49365 0C5.55731 0 5.62031 0.0130497 5.67873 0.0383436C5.73716 0.0636374 5.78978 0.100639 5.83335 0.147063C5.87978 0.190633 5.91678 0.243256 5.94207 0.301683C5.96737 0.36011 5.98042 0.423102 5.98042 0.48677C5.98042 0.550437 5.96737 0.613429 5.94207 0.671856C5.91678 0.730284 5.87978 0.782907 5.83335 0.826477L1.12599 5.49502L5.83335 10.1636C5.87884 10.2087 5.91494 10.2624 5.93958 10.3215C5.96422 10.3806 5.9769 10.4441 5.9769 10.5081C5.9769 10.5722 5.96422 10.6356 5.93958 10.6948C5.91494 10.7539 5.87884 10.8076 5.83335 10.8527C5.78978 10.8991 5.73716 10.9361 5.67873 10.9614C5.62031 10.9867 5.55731 10.9997 5.49365 10.9997C5.42998 10.9997 5.36699 10.9867 5.30856 10.9614C5.25013 10.9361 5.19751 10.8991 5.15394 10.8527L0.155394 5.82502C0.0657919 5.73716 0.0106886 5.62007 9.94551e-05 5.49502Z" fill="black"/>
</svg>
