<svg width="14" height="14" viewBox="0 0 14 14" fill="none" xmlns="http://www.w3.org/2000/svg">
<path d="M7.00185 13.5842C3.34959 13.5842 0.458215 10.6167 0.458215 7.04055C0.458215 3.46437 3.42568 0.496909 7.00185 0.496909C10.578 0.496909 13.5455 3.46437 13.5455 7.04055C13.5455 10.6167 10.578 13.5842 7.00185 13.5842ZM7.00185 1.18171C3.80612 1.18171 1.2191 3.76873 1.2191 6.96446C1.2191 10.1602 3.80612 12.7472 7.00185 12.7472C10.1976 12.7472 12.7846 10.1602 12.7846 6.96446C12.7846 3.76873 10.1976 1.18171 7.00185 1.18171Z" fill="#C29E79" stroke="#C29E79" stroke-width="0.729733"/>
<path d="M7.38159 4.83264H6.6207V9.24579H7.38159V4.83264Z" fill="#C29E79" stroke="#C29E79" stroke-width="0.729733"/>
<path d="M9.20914 6.58404H4.79599V7.34493H9.20914V6.58404Z" fill="#C29E79" stroke="#C29E79" stroke-width="0.729733"/>
</svg>
