<svg width="10" height="10" viewBox="0 0 10 10" fill="none" xmlns="http://www.w3.org/2000/svg">
<path d="M8.04625 1.34375H9.24097C9.2944 1.34374 9.34731 1.35437 9.39659 1.37502C9.44588 1.39566 9.49056 1.42591 9.52804 1.464C9.56551 1.5021 9.59503 1.54726 9.61488 1.59688C9.63472 1.64649 9.64449 1.69956 9.64361 1.75299V9.05992C9.63852 9.16324 9.59387 9.26064 9.5189 9.33191C9.44393 9.40319 9.34441 9.44289 9.24097 9.44276H0.739319C0.630782 9.44276 0.52669 9.39964 0.449942 9.3229C0.373194 9.24615 0.330078 9.14206 0.330078 9.03352V1.75299C0.330078 1.64445 0.373194 1.54036 0.449942 1.46361C0.52669 1.38687 0.630782 1.34375 0.739319 1.34375H1.98024" fill="black"/>
<path d="M8.04625 1.34375H9.24097C9.2944 1.34374 9.34731 1.35437 9.39659 1.37502C9.44588 1.39566 9.49056 1.42591 9.52804 1.464C9.56551 1.5021 9.59503 1.54726 9.61488 1.59688C9.63472 1.64649 9.64449 1.69956 9.64361 1.75299V9.05992C9.63852 9.16324 9.59387 9.26064 9.5189 9.33191C9.44393 9.40319 9.34441 9.44289 9.24097 9.44276H0.739319C0.630782 9.44276 0.52669 9.39964 0.449942 9.3229C0.373194 9.24615 0.330078 9.14206 0.330078 9.03352V1.75299C0.330078 1.64445 0.373194 1.54036 0.449942 1.46361C0.52669 1.38687 0.630782 1.34375 0.739319 1.34375H1.98024" stroke="white" stroke-width="0.660066"/>
<path d="M2.76562 0.53125V2.15501" stroke="white" stroke-width="0.660066"/>
<path d="M7.23438 0.53125V2.15501" stroke="white" stroke-width="0.660066"/>
<path d="M4.79883 3.77734H5.20147" stroke="white" stroke-width="0.660066"/>
<path d="M6.83203 3.77734H7.23467" stroke="white" stroke-width="0.660066"/>
<path d="M2.76562 5.8125H3.17487" stroke="white" stroke-width="0.660066"/>
<path d="M4.79883 5.8125H5.20147" stroke="white" stroke-width="0.660066"/>
<path d="M6.83203 5.8125H7.23467" stroke="white" stroke-width="0.660066"/>
<path d="M2.76562 7.84375H3.17487" stroke="white" stroke-width="0.660066"/>
<path d="M4.79883 7.84375H5.20147" stroke="white" stroke-width="0.660066"/>
<path d="M3.57812 1.34375H6.42301" stroke="white" stroke-width="0.660066"/>
</svg>
