<svg width="14" height="14" viewBox="0 0 14 14" fill="none" xmlns="http://www.w3.org/2000/svg">
<path d="M6.99636 13.5826C3.34436 13.5826 0.453201 10.6153 0.453201 7.03942C0.453201 3.46351 3.42045 0.496265 6.99636 0.496265C10.5723 0.496265 13.5395 3.46351 13.5395 7.03942C13.5395 10.6153 10.5723 13.5826 6.99636 13.5826ZM6.99636 1.18101C3.80086 1.18101 1.21403 3.76784 1.21403 6.96334C1.21403 10.1588 3.80086 12.7457 6.99636 12.7457C10.1919 12.7457 12.7787 10.1588 12.7787 6.96334C12.7787 3.76784 10.1919 1.18101 6.99636 1.18101Z" fill="#B99066" stroke="#B99066" stroke-width="0.724638"/>
<path d="M7.37428 4.83346H6.61345V9.24628H7.37428V4.83346Z" fill="#B99066" stroke="#B99066" stroke-width="0.724638"/>
<path d="M9.20117 6.58064H4.78834V7.34147H9.20117V6.58064Z" fill="#B99066" stroke="#B99066" stroke-width="0.724638"/>
</svg>
