<svg width="8" height="14" viewBox="0 0 8 14" fill="none" xmlns="http://www.w3.org/2000/svg">
<path d="M7.61164 7.00603C7.60109 7.16954 7.53074 7.32345 7.41399 7.43841L1.05193 13.8128C0.99647 13.8719 0.929492 13.919 0.855127 13.9512C0.780762 13.9834 0.700587 14 0.619552 14C0.538517 14 0.458342 13.9834 0.383977 13.9512C0.309611 13.919 0.242634 13.8719 0.187179 13.8128C0.128091 13.7574 0.0809966 13.6904 0.048803 13.616C0.0166095 13.5417 0 13.4615 0 13.3804C0 13.2994 0.0166095 13.2192 0.048803 13.1449C0.0809966 13.0705 0.128091 13.0035 0.187179 12.9481L6.17864 7.00603L0.187179 1.06399C0.129285 1.00657 0.0833335 0.938256 0.0519749 0.862986C0.0206163 0.787716 0.00447134 0.706983 0.00447134 0.625442C0.00447134 0.543902 0.0206163 0.463168 0.0519749 0.387899C0.0833335 0.312629 0.129285 0.244312 0.187179 0.186892C0.242634 0.127804 0.309611 0.0807097 0.383977 0.0485164C0.458342 0.016323 0.538517 -0.000286226 0.619552 -0.000286226C0.700587 -0.000286226 0.780762 0.016323 0.855127 0.0485164C0.929492 0.0807097 0.99647 0.127804 1.05193 0.186892L7.41399 6.58601C7.52803 6.69784 7.59817 6.84688 7.61164 7.00603Z" fill="white"/>
</svg>
