<svg width="14" height="14" viewBox="0 0 14 14" fill="none" xmlns="http://www.w3.org/2000/svg">
<path d="M7.00046 13.5785C3.34846 13.5785 0.457302 10.6112 0.457302 7.03532C0.457302 3.45941 3.42455 0.492163 7.00046 0.492163C10.5764 0.492163 13.5436 3.45941 13.5436 7.03532C13.5436 10.6112 10.5764 13.5785 7.00046 13.5785ZM7.00046 1.17691C3.80496 1.17691 1.21813 3.76374 1.21813 6.95924C1.21813 10.1547 3.80496 12.7416 7.00046 12.7416C10.196 12.7416 12.7828 10.1547 12.7828 6.95924C12.7828 3.76374 10.196 1.17691 7.00046 1.17691Z" fill="#4EBBBD" stroke="#4EBBBD" stroke-width="0.724638"/>
<path d="M7.38043 4.8314H6.6196V9.24423H7.38043V4.8314Z" fill="#4EBBBD" stroke="#4EBBBD" stroke-width="0.724638"/>
<path d="M9.20732 6.57859H4.79449V7.33942H9.20732V6.57859Z" fill="#4EBBBD" stroke="#4EBBBD" stroke-width="0.724638"/>
</svg>
