<svg width="7" height="8" viewBox="0 0 7 8" fill="none" xmlns="http://www.w3.org/2000/svg">
<path d="M5.40201 3.813C5.39673 3.89477 5.36155 3.97174 5.30316 4.02923L2.1215 7.21707C2.09376 7.24662 2.06027 7.27017 2.02308 7.28627C1.98589 7.30237 1.94579 7.31068 1.90527 7.31068C1.86474 7.31068 1.82465 7.30237 1.78746 7.28627C1.75027 7.27017 1.71677 7.24662 1.68904 7.21707C1.65949 7.18934 1.63594 7.15584 1.61984 7.11865C1.60374 7.08146 1.59543 7.04137 1.59543 7.00084C1.59543 6.96032 1.60374 6.92022 1.61984 6.88303C1.63594 6.84584 1.65949 6.81234 1.68904 6.78461L4.68536 3.813L1.68904 0.841389C1.66009 0.812673 1.6371 0.778508 1.62142 0.740866C1.60574 0.703224 1.59767 0.662849 1.59767 0.62207C1.59767 0.581292 1.60574 0.540917 1.62142 0.503275C1.6371 0.465633 1.66009 0.431468 1.68904 0.402752C1.71677 0.373202 1.75027 0.34965 1.78746 0.33355C1.82465 0.31745 1.86474 0.309144 1.90527 0.309144C1.94579 0.309144 1.98589 0.31745 2.02308 0.33355C2.06027 0.34965 2.09376 0.373202 2.1215 0.402752L5.30316 3.60295C5.36019 3.65887 5.39527 3.73341 5.40201 3.813Z" fill="#112033" stroke="#112033" stroke-width="0.588408"/>
</svg>
