<svg width="22" height="18" viewBox="0 0 22 18" fill="none" xmlns="http://www.w3.org/2000/svg">
<path d="M4.2532 17.999C3.70732 18.0085 3.16538 17.9049 2.66149 17.6948C2.15761 17.4846 1.70269 17.1724 1.32537 16.7778C0.948052 16.3832 0.656509 15.9147 0.469093 15.4019C0.281676 14.8892 0.202445 14.3431 0.236386 13.7982C0.22048 13.272 0.314467 12.7483 0.512346 12.2604C0.710225 11.7726 1.00765 11.3314 1.38563 10.9649C1.76361 10.5985 2.21385 10.3149 2.70759 10.1322C3.20133 9.94955 3.72774 9.87184 4.2532 9.90406C4.42568 9.8743 4.60199 9.8743 4.77447 9.90406C4.77447 6.83778 3.24133 4.84471 0.0830724 3.28091L1.75419 0C6.76754 2.45302 9.15923 6.25519 9.15923 11.1612C9.15923 15.4387 7.48812 17.999 4.2532 17.999ZM16.6256 17.999C16.0797 18.0085 15.5378 17.9049 15.0339 17.6948C14.53 17.4846 14.0751 17.1724 13.6978 16.7778C13.3205 16.3832 13.0289 15.9147 12.8415 15.4019C12.6541 14.8892 12.5748 14.3431 12.6088 13.7982C12.6036 13.2784 12.7055 12.7631 12.9082 12.2843C13.1108 11.8056 13.4099 11.3737 13.7867 11.0156C14.1635 10.6575 14.6101 10.3808 15.0985 10.2027C15.5869 10.0247 16.1067 9.94912 16.6256 9.98071C16.7981 9.95096 16.9744 9.95096 17.1469 9.98071C17.1469 6.91444 15.6137 4.92137 12.4401 3.35757L14.1113 0C19.1246 2.45302 21.547 6.25519 21.547 11.1612C21.547 15.4387 19.8605 17.999 16.6256 17.999Z" fill="#89949D"/>
</svg>
