<svg width="14" height="14" viewBox="0 0 14 14" fill="none" xmlns="http://www.w3.org/2000/svg">
<path d="M10.8024 7.00603C10.7919 7.16954 10.7215 7.32345 10.6048 7.43841L4.24272 13.8128C4.18726 13.8719 4.12029 13.919 4.04592 13.9512C3.97156 13.9834 3.89138 14 3.81035 14C3.72931 14 3.64914 13.9834 3.57477 13.9512C3.50041 13.919 3.43343 13.8719 3.37797 13.8128C3.31889 13.7574 3.27179 13.6904 3.2396 13.616C3.2074 13.5417 3.19079 13.4615 3.19079 13.3804C3.19079 13.2994 3.2074 13.2192 3.2396 13.1449C3.27179 13.0705 3.31889 13.0035 3.37797 12.9481L9.36943 7.00603L3.37797 1.06399C3.32008 1.00657 3.27413 0.938256 3.24277 0.862986C3.21141 0.787716 3.19527 0.706983 3.19527 0.625442C3.19527 0.543902 3.21141 0.463168 3.24277 0.387899C3.27413 0.312629 3.32008 0.244312 3.37797 0.186892C3.43343 0.127804 3.50041 0.0807097 3.57477 0.0485164C3.64914 0.016323 3.72931 -0.000286226 3.81035 -0.000286226C3.89138 -0.000286226 3.97156 0.016323 4.04592 0.0485164C4.12029 0.0807097 4.18726 0.127804 4.24272 0.186892L10.6048 6.58601C10.7188 6.69784 10.789 6.84688 10.8024 7.00603Z" fill="#112033"/>
</svg>
