<svg width="6" height="11" viewBox="0 0 6 11" fill="none" xmlns="http://www.w3.org/2000/svg">
<path d="M5.98032 5.50498C5.97203 5.63344 5.91675 5.75436 5.82502 5.84469L0.826477 10.8529C0.782907 10.8994 0.730284 10.9364 0.671856 10.9617C0.613429 10.987 0.550437 11 0.48677 11C0.423102 11 0.36011 10.987 0.301683 10.9617C0.243256 10.9364 0.190633 10.8994 0.147063 10.8529C0.100639 10.8094 0.0636374 10.7567 0.0383436 10.6983C0.0130497 10.6399 0 10.5769 0 10.5132C0 10.4496 0.0130497 10.3866 0.0383436 10.3281C0.0636374 10.2697 0.100639 10.2171 0.147063 10.1735L4.85443 5.50498L0.147063 0.836434C0.101577 0.79132 0.0654735 0.737646 0.0408356 0.678508C0.0161978 0.619371 0.00351304 0.555939 0.00351304 0.491875C0.00351304 0.42781 0.0161978 0.364379 0.0408356 0.305242C0.0654735 0.246104 0.101577 0.192428 0.147063 0.147314C0.190633 0.10089 0.243256 0.0638897 0.301683 0.0385959C0.36011 0.013302 0.423102 0.000252022 0.48677 0.000252022C0.550437 0.000252022 0.613429 0.013302 0.671856 0.0385959C0.730284 0.0638897 0.782907 0.10089 0.826477 0.147314L5.82502 5.17498C5.91463 5.26284 5.96973 5.37993 5.98032 5.50498Z" fill="black"/>
</svg>
