<svg width="25" height="25" viewBox="0 0 25 25" fill="none" xmlns="http://www.w3.org/2000/svg">
<path d="M12 20C8.12941 20 5 16.8706 5 13C5 9.12941 8.12941 6 12 6C15.8706 6 19 9.12941 19 13C19 16.8706 15.8706 20 12 20ZM12 6.82353C8.58235 6.82353 5.82353 9.58235 5.82353 13C5.82353 16.4176 8.58235 19.1765 12 19.1765C15.4176 19.1765 18.1765 16.4176 18.1765 13C18.1765 9.58235 15.4176 6.82353 12 6.82353Z" fill="black"/>
<path d="M8.29395 12.5879H15.7057V13.4114H8.29395V12.5879Z" fill="black"/>
<path d="M11.5879 9.29395H12.4114V16.7057H11.5879V9.29395Z" fill="black"/>
</svg>
