<?xml version="1.0" encoding="UTF-8"?>
<svg id="Calque_2" data-name="Calque 2" xmlns="http://www.w3.org/2000/svg" viewBox="0 0 134.39 34.88">
  <defs>
    <style>
      .cls-1 {
        fill: #4730ff;
        stroke-width: 0px;
      }
    </style>
  </defs>
  <g id="Calque_1-2" data-name="Calque 1">
    <g>
      <polygon class="cls-1" points="24.28 28.45 32.47 28.45 32.47 25.5 24.28 25.5 24.28 22.43 33.59 22.43 33.59 19.48 20.49 19.48 20.49 34.58 33.72 34.58 33.72 31.63 24.28 31.63 24.28 28.45"/>
      <polygon class="cls-1" points="41.73 19.48 37.9 19.48 37.9 34.58 50.39 34.58 50.39 31.56 41.73 31.56 41.73 19.48"/>
      <polygon class="cls-1" points="58.37 28.45 66.56 28.45 66.56 25.5 58.37 25.5 58.37 22.43 67.68 22.43 67.68 19.48 54.58 19.48 54.58 34.58 67.81 34.58 67.81 31.63 58.37 31.63 58.37 28.45"/>
      <polygon class="cls-1" points="83.66 28.78 75.52 19.48 71.99 19.48 71.99 34.58 75.77 34.58 75.77 24.98 84.18 34.58 87.43 34.58 87.43 19.48 83.66 19.48 83.66 28.78"/>
      <path class="cls-1" d="M99.46,34.84c-1.29,0-2.51-.21-3.62-.61-1.12-.41-2.09-.97-2.91-1.68-.82-.71-1.47-1.57-1.94-2.56-.47-.99-.7-2.06-.7-3.21s.24-2.21.71-3.19c.47-.97,1.12-1.82,1.94-2.52.82-.7,1.79-1.26,2.91-1.65,1.11-.39,2.33-.59,3.62-.59.8,0,1.54.04,2.22.13.68.09,1.33.22,1.93.39.6.17,1.18.38,1.72.64.54.25,1.07.55,1.57.9l.28.2-1.54,3.25-.39-.25c-.94-.61-1.9-1.04-2.86-1.29-.97-.25-1.96-.38-2.92-.38-.7,0-1.4.1-2.07.29-.67.19-1.27.48-1.79.86-.51.37-.93.83-1.25,1.38-.31.54-.46,1.18-.46,1.9s.16,1.36.46,1.91c.31.56.73,1.04,1.25,1.42.52.39,1.13.69,1.79.88.67.2,1.37.3,2.07.3.96,0,1.92-.14,2.87-.42.95-.28,1.93-.72,2.93-1.32l.38-.23,1.55,3.21-.33.19c-.46.26-.93.52-1.41.76-.49.25-1.04.47-1.63.66-.59.19-1.25.35-1.95.46-.7.11-1.52.17-2.42.17Z"/>
      <rect class="cls-1" x="110.01" y="19.48" width="3.82" height="15.11"/>
      <path class="cls-1" d="M130.68,34.58l-.77-2.87h-9.13l-.79,2.87h-3.75l.06-.22c.26-.98.53-1.96.81-2.93.28-.99.56-1.94.84-2.83.28-.91.58-1.79.88-2.63.3-.84.63-1.62.96-2.32.73-1.57,1.58-2.77,2.53-3.58.97-.83,1.99-1.26,3.02-1.26h0c1.05,0,2.06.42,3.02,1.24.94.8,1.79,2.02,2.53,3.6.28.6.56,1.26.83,1.98.27.71.54,1.51.81,2.38.26.85.55,1.81.85,2.87.3,1.05.62,2.22.96,3.47l.06.22h-3.71ZM129.05,28.76c-.19-.58-.38-1.15-.58-1.68-.25-.69-.52-1.33-.8-1.92-.77-1.68-1.56-2.57-2.27-2.59l-.02-.14v.14c-.7,0-1.52.92-2.32,2.59-.27.59-.53,1.24-.79,1.93-.2.53-.39,1.09-.57,1.68h7.35Z"/>
      <path class="cls-1" d="M44.69,24.1s-1.29-15.42,9.53-24.1c2.73,3.47,2.72,19.79-9.53,24.1"/>
      <path class="cls-1" d="M44.3,14.89s-1.24-9.3-8.77-13.03c-1.17,2.41.96,12.07,8.77,13.03"/>
      <path class="cls-1" d="M15.2,26.49c-.57-.35-1.23-.65-1.97-.87-.72-.22-1.46-.41-2.22-.57-.75-.16-1.5-.3-2.21-.42-.7-.12-1.33-.25-1.88-.38-.53-.13-.96-.29-1.29-.45-.33-.17-.36-.33-.36-.44,0-.16.06-.28.2-.4.17-.14.41-.27.71-.37.32-.11.69-.18,1.1-.23.42-.05.86-.07,1.32-.07,1.13,0,2.23.18,3.27.52.96.32,1.87.82,2.72,1.47l1.91-2.79c-1.19-.89-2.45-1.56-3.76-1.97-1.39-.43-2.78-.65-4.13-.65-1.01,0-1.95.11-2.79.32-.84.22-1.59.53-2.21.93-.63.41-1.12.9-1.47,1.48-.35.58-.53,1.23-.53,1.92,0,.73.19,1.36.57,1.87.36.49.85.91,1.44,1.24.58.33,1.25.59,1.99.79.73.2,1.47.37,2.22.51.75.14,1.49.27,2.21.38.71.11,1.35.24,1.89.39.53.15.96.32,1.28.52.26.17.39.36.39.62,0,.19-.07.37-.23.55-.17.2-.42.39-.72.54-.32.16-.72.3-1.19.41-.47.11-.99.16-1.56.16-.68,0-1.39-.05-2.1-.15-.71-.1-1.41-.25-2.08-.43-.67-.19-1.32-.41-1.92-.68-.6-.27-1.14-.57-1.61-.91l-.23-.16-1.94,2.77.23.16c.7.48,1.46.91,2.28,1.26.81.35,1.64.64,2.49.87.84.23,1.69.39,2.52.5.83.11,1.63.16,2.38.16.99,0,1.94-.13,2.81-.39.88-.26,1.66-.62,2.32-1.08.67-.46,1.2-1.01,1.58-1.64.39-.64.59-1.33.59-2.07s-.19-1.38-.57-1.91c-.36-.5-.84-.94-1.42-1.3Z"/>
    </g>
  </g>
</svg>